<svg width="256" height="256" viewBox="0 0 256 256" fill="none" xmlns="http://www.w3.org/2000/svg">
<g clip-path="url(#clip0_2_22)">
<path d="M211 256H45C20.1 256 0 235.9 0 211V45C0 20.1 20.1 0 45 0H211C235.9 0 256 20.1 256 45V211C256 235.9 235.9 256 211 256Z" fill="#004656"/>
<rect x="99.5939" y="33.8" width="108.951" height="52.6" rx="10" fill="#00323A"/>
<rect x="19.5725" y="100.3" width="173.251" height="52.6" rx="10" fill="#00323A"/>
<rect x="19.5726" y="169.6" width="216.855" height="52.6" rx="10" fill="#00323A"/>
<path d="M32.5022 68.46L34.8062 64.86C35.9582 65.556 37.0502 66.108 38.0822 66.516C39.1142 66.9 40.1942 67.092 41.3222 67.092C42.1862 67.092 42.8462 66.948 43.3022 66.66C43.7582 66.372 43.9862 65.976 43.9862 65.472C43.9862 64.968 43.7222 64.548 43.1942 64.212C42.6902 63.852 42.0422 63.528 41.2502 63.24C40.4582 62.928 39.6062 62.604 38.6942 62.268C37.8062 61.932 36.9662 61.512 36.1742 61.008C35.3822 60.504 34.7342 59.88 34.2302 59.136C33.7262 58.392 33.4742 57.468 33.4742 56.364C33.4742 55.14 33.7982 54.084 34.4462 53.196C35.0942 52.284 36.0062 51.588 37.1822 51.108C38.3822 50.604 39.7862 50.352 41.3942 50.352C43.0502 50.352 44.4542 50.64 45.6062 51.216C46.7582 51.792 47.7782 52.524 48.6662 53.412L46.0382 56.436C45.1982 55.836 44.3942 55.392 43.6262 55.104C42.8822 54.792 42.0182 54.636 41.0342 54.636C40.2422 54.636 39.6302 54.78 39.1982 55.068C38.7662 55.356 38.5502 55.764 38.5502 56.292C38.5502 56.7 38.8022 57.06 39.3062 57.372C39.8102 57.684 40.4582 57.984 41.2502 58.272C42.0422 58.536 42.8822 58.848 43.7702 59.208C44.6822 59.544 45.5342 59.964 46.3262 60.468C47.1182 60.972 47.7662 61.596 48.2702 62.34C48.7742 63.06 49.0262 63.972 49.0262 65.076C49.0262 66.276 48.7022 67.356 48.0542 68.316C47.4062 69.252 46.4462 69.996 45.1742 70.548C43.9262 71.1 42.3782 71.376 40.5302 71.376C39.6902 71.376 38.7782 71.256 37.7942 71.016C36.8342 70.776 35.8862 70.44 34.9502 70.008C34.0382 69.576 33.2222 69.06 32.5022 68.46ZM39.3782 52.008V45.78H42.9062V52.008H39.3782ZM39.3782 69.216H42.9062V76.56H39.3782V69.216ZM53.9442 78.504V74.544H71.2242V78.504H53.9442Z" fill="white"/>
<path d="M42.0782 139.532C40.2302 139.532 38.5502 139.172 37.0382 138.452C35.5502 137.708 34.3622 136.64 33.4742 135.248C32.6102 133.832 32.1782 132.14 32.1782 130.172C32.1782 128.228 32.6222 126.56 33.5102 125.168C34.3982 123.752 35.5502 122.672 36.9662 121.928C38.3822 121.184 39.8822 120.812 41.4662 120.812C43.3142 120.812 44.8622 121.196 46.1102 121.964C47.3582 122.708 48.2942 123.728 48.9182 125.024C49.5662 126.296 49.8902 127.748 49.8902 129.38C49.8902 129.86 49.8542 130.328 49.7822 130.784C49.7342 131.216 49.6862 131.54 49.6382 131.756H36.1022V128.192H46.0742L45.2462 129.2C45.2462 127.76 44.9342 126.68 44.3102 125.96C43.7102 125.216 42.8222 124.844 41.6462 124.844C40.7822 124.844 40.0262 125.036 39.3782 125.42C38.7302 125.804 38.2262 126.392 37.8662 127.184C37.5062 127.976 37.3262 128.972 37.3262 130.172C37.3262 131.396 37.5422 132.404 37.9742 133.196C38.4062 133.964 39.0302 134.54 39.8462 134.924C40.6622 135.308 41.6462 135.5 42.7982 135.5C43.6142 135.5 44.3822 135.392 45.1022 135.176C45.8462 134.96 46.6142 134.648 47.4062 134.24L49.1702 137.444C48.1382 138.092 46.9982 138.608 45.7502 138.992C44.5022 139.352 43.2782 139.532 42.0782 139.532ZM64.1322 139.532C62.2602 139.532 60.5682 139.172 59.0562 138.452C57.5682 137.708 56.3802 136.64 55.4922 135.248C54.6282 133.832 54.1962 132.14 54.1962 130.172C54.1962 128.204 54.6762 126.524 55.6362 125.132C56.5962 123.716 57.8562 122.648 59.4162 121.928C61.0002 121.184 62.7042 120.812 64.5282 120.812C65.9442 120.812 67.2282 121.04 68.3802 121.496C69.5322 121.928 70.4802 122.504 71.2242 123.224L68.7762 126.5C68.0802 126.02 67.4082 125.672 66.7602 125.456C66.1362 125.216 65.4882 125.096 64.8162 125.096C63.8082 125.096 62.9082 125.3 62.1162 125.708C61.3242 126.116 60.7122 126.704 60.2802 127.472C59.8482 128.24 59.6322 129.14 59.6322 130.172C59.6322 131.204 59.8362 132.104 60.2442 132.872C60.6762 133.64 61.2642 134.228 62.0082 134.636C62.7762 135.044 63.6522 135.248 64.6362 135.248C65.5722 135.248 66.4242 135.08 67.1922 134.744C67.9842 134.408 68.7042 134.012 69.3522 133.556L71.4762 136.904C70.4202 137.792 69.2322 138.452 67.9122 138.884C66.6162 139.316 65.3562 139.532 64.1322 139.532ZM75.9621 139.1V113.864H81.2541V120.056L80.9661 123.476H81.0741C81.7461 122.78 82.5621 122.168 83.5221 121.64C84.5061 121.088 85.6701 120.812 87.0141 120.812C89.0301 120.812 90.4941 121.46 91.4061 122.756C92.3421 124.052 92.8101 125.828 92.8101 128.084V139.1H87.5181V128.768C87.5181 127.568 87.3141 126.692 86.9061 126.14C86.5221 125.588 85.8501 125.312 84.8901 125.312C84.1701 125.312 83.5341 125.48 82.9821 125.816C82.4541 126.128 81.8781 126.584 81.2541 127.184V139.1H75.9621ZM105.756 139.532C104.196 139.532 102.72 139.172 101.328 138.452C99.9361 137.708 98.8081 136.64 97.9441 135.248C97.0801 133.832 96.6481 132.14 96.6481 130.172C96.6481 128.204 97.0801 126.524 97.9441 125.132C98.8081 123.716 99.9361 122.648 101.328 121.928C102.72 121.184 104.196 120.812 105.756 120.812C107.316 120.812 108.792 121.184 110.184 121.928C111.576 122.648 112.704 123.716 113.568 125.132C114.432 126.524 114.864 128.204 114.864 130.172C114.864 132.14 114.432 133.832 113.568 135.248C112.704 136.64 111.576 137.708 110.184 138.452C108.792 139.172 107.316 139.532 105.756 139.532ZM105.756 135.248C106.572 135.248 107.244 135.044 107.772 134.636C108.324 134.228 108.732 133.64 108.996 132.872C109.284 132.104 109.428 131.204 109.428 130.172C109.428 129.14 109.284 128.24 108.996 127.472C108.732 126.704 108.324 126.116 107.772 125.708C107.244 125.3 106.572 125.096 105.756 125.096C104.94 125.096 104.256 125.3 103.704 125.708C103.176 126.116 102.768 126.704 102.48 127.472C102.216 128.24 102.084 129.14 102.084 130.172C102.084 131.204 102.216 132.104 102.48 132.872C102.768 133.64 103.176 134.228 103.704 134.636C104.256 135.044 104.94 135.248 105.756 135.248ZM140.72 139.1V113.864H146.012V120.056L145.724 123.476H145.832C146.504 122.78 147.32 122.168 148.28 121.64C149.264 121.088 150.428 120.812 151.772 120.812C153.788 120.812 155.252 121.46 156.164 122.756C157.1 124.052 157.568 125.828 157.568 128.084V139.1H152.276V128.768C152.276 127.568 152.072 126.692 151.664 126.14C151.28 125.588 150.608 125.312 149.648 125.312C148.928 125.312 148.292 125.48 147.74 125.816C147.212 126.128 146.636 126.584 146.012 127.184V139.1H140.72ZM169.722 139.1V125.384H162.522V121.244H175.014V139.1H169.722ZM172.134 118.436C171.126 118.436 170.286 118.148 169.614 117.572C168.942 116.972 168.606 116.192 168.606 115.232C168.606 114.248 168.942 113.456 169.614 112.856C170.286 112.232 171.126 111.92 172.134 111.92C173.166 111.92 174.006 112.232 174.654 112.856C175.326 113.456 175.662 114.248 175.662 115.232C175.662 116.192 175.326 116.972 174.654 117.572C174.006 118.148 173.166 118.436 172.134 118.436Z" fill="white"/>
<path d="M32.7902 205.6V187.744H37.1102L37.5062 190.12H37.6502C38.4182 189.352 39.2942 188.692 40.2782 188.14C41.2862 187.588 42.4622 187.312 43.8062 187.312C45.8222 187.312 47.2982 187.96 48.2342 189.256C49.1702 190.552 49.6382 192.328 49.6382 194.584V205.6H44.3462V195.268C44.3462 194.068 44.1422 193.192 43.7342 192.64C43.3502 192.088 42.6782 191.812 41.7182 191.812C40.9982 191.812 40.3622 191.98 39.8102 192.316C39.2822 192.628 38.7062 193.084 38.0822 193.684V205.6H32.7902ZM62.5842 206.032C61.0242 206.032 59.5482 205.672 58.1562 204.952C56.7642 204.208 55.6362 203.14 54.7722 201.748C53.9082 200.332 53.4762 198.64 53.4762 196.672C53.4762 194.704 53.9082 193.024 54.7722 191.632C55.6362 190.216 56.7642 189.148 58.1562 188.428C59.5482 187.684 61.0242 187.312 62.5842 187.312C64.1442 187.312 65.6202 187.684 67.0122 188.428C68.4042 189.148 69.5322 190.216 70.3962 191.632C71.2602 193.024 71.6922 194.704 71.6922 196.672C71.6922 198.64 71.2602 200.332 70.3962 201.748C69.5322 203.14 68.4042 204.208 67.0122 204.952C65.6202 205.672 64.1442 206.032 62.5842 206.032ZM62.5842 201.748C63.4002 201.748 64.0722 201.544 64.6002 201.136C65.1522 200.728 65.5602 200.14 65.8242 199.372C66.1122 198.604 66.2562 197.704 66.2562 196.672C66.2562 195.64 66.1122 194.74 65.8242 193.972C65.5602 193.204 65.1522 192.616 64.6002 192.208C64.0722 191.8 63.4002 191.596 62.5842 191.596C61.7682 191.596 61.0842 191.8 60.5322 192.208C60.0042 192.616 59.5962 193.204 59.3082 193.972C59.0442 194.74 58.9122 195.64 58.9122 196.672C58.9122 197.704 59.0442 198.604 59.3082 199.372C59.5962 200.14 60.0042 200.728 60.5322 201.136C61.0842 201.544 61.7682 201.748 62.5842 201.748ZM82.5861 206.032C80.3301 206.032 78.5061 205.204 77.1141 203.548C75.7461 201.868 75.0621 199.576 75.0621 196.672C75.0621 194.728 75.4221 193.06 76.1421 191.668C76.8861 190.276 77.8461 189.208 79.0221 188.464C80.1981 187.696 81.4221 187.312 82.6941 187.312C83.6781 187.312 84.5301 187.48 85.2501 187.816C85.9701 188.152 86.6181 188.62 87.1941 189.22H87.3381L87.0861 186.448V180.364H92.3781V205.6H88.0581L87.6621 203.764H87.5541C86.9061 204.412 86.1381 204.952 85.2501 205.384C84.3861 205.816 83.4981 206.032 82.5861 206.032ZM83.9541 201.712C84.5541 201.712 85.1061 201.592 85.6101 201.352C86.1381 201.088 86.6301 200.656 87.0861 200.056V192.82C86.6061 192.388 86.1141 192.088 85.6101 191.92C85.1301 191.728 84.6261 191.632 84.0981 191.632C83.4501 191.632 82.8501 191.812 82.2981 192.172C81.7461 192.532 81.3021 193.084 80.9661 193.828C80.6541 194.548 80.4981 195.472 80.4981 196.6C80.4981 198.352 80.7981 199.648 81.3981 200.488C81.9981 201.304 82.8501 201.712 83.9541 201.712ZM106.836 206.032C104.988 206.032 103.308 205.672 101.796 204.952C100.308 204.208 99.1201 203.14 98.2321 201.748C97.3681 200.332 96.9361 198.64 96.9361 196.672C96.9361 194.728 97.3801 193.06 98.2681 191.668C99.1561 190.252 100.308 189.172 101.724 188.428C103.14 187.684 104.64 187.312 106.224 187.312C108.072 187.312 109.62 187.696 110.868 188.464C112.116 189.208 113.052 190.228 113.676 191.524C114.324 192.796 114.648 194.248 114.648 195.88C114.648 196.36 114.612 196.828 114.54 197.284C114.492 197.716 114.444 198.04 114.396 198.256H100.86V194.692H110.832L110.004 195.7C110.004 194.26 109.692 193.18 109.068 192.46C108.468 191.716 107.58 191.344 106.404 191.344C105.54 191.344 104.784 191.536 104.136 191.92C103.488 192.304 102.984 192.892 102.624 193.684C102.264 194.476 102.084 195.472 102.084 196.672C102.084 197.896 102.3 198.904 102.732 199.696C103.164 200.464 103.788 201.04 104.604 201.424C105.42 201.808 106.404 202 107.556 202C108.372 202 109.14 201.892 109.86 201.676C110.604 201.46 111.372 201.148 112.164 200.74L113.928 203.944C112.896 204.592 111.756 205.108 110.508 205.492C109.26 205.852 108.036 206.032 106.836 206.032ZM148.784 206.032C147.2 206.032 145.628 205.768 144.068 205.24C142.508 204.688 141.164 204.04 140.036 203.296L142.304 199.984C143.384 200.68 144.524 201.208 145.724 201.568C146.948 201.928 148.208 202.108 149.504 202.108C150.488 202.108 151.208 201.964 151.664 201.676C152.12 201.364 152.348 201.004 152.348 200.596C152.348 200.332 152.276 200.116 152.132 199.948C152.012 199.756 151.784 199.588 151.448 199.444C151.136 199.276 150.692 199.12 150.116 198.976C149.564 198.832 148.844 198.664 147.956 198.472C145.532 197.944 143.792 197.224 142.736 196.312C141.68 195.4 141.152 194.26 141.152 192.892C141.152 191.212 141.884 189.868 143.348 188.86C144.812 187.828 146.816 187.312 149.36 187.312C150.968 187.312 152.42 187.576 153.716 188.104C155.036 188.608 156.164 189.16 157.1 189.76L154.724 192.928C153.836 192.376 152.888 191.956 151.88 191.668C150.872 191.38 149.876 191.236 148.892 191.236C148.34 191.236 147.884 191.296 147.524 191.416C147.164 191.512 146.888 191.68 146.696 191.92C146.504 192.136 146.408 192.376 146.408 192.64C146.408 193.12 146.72 193.48 147.344 193.72C147.968 193.936 149.036 194.212 150.548 194.548C152.372 194.956 153.8 195.424 154.832 195.952C155.864 196.48 156.572 197.092 156.956 197.788C157.364 198.46 157.568 199.288 157.568 200.272C157.568 201.352 157.232 202.324 156.56 203.188C155.912 204.052 154.928 204.748 153.608 205.276C152.312 205.78 150.704 206.032 148.784 206.032ZM170.514 206.032C169.29 206.032 168.282 205.624 167.49 204.808C166.722 203.992 166.338 202.996 166.338 201.82C166.338 200.644 166.722 199.648 167.49 198.832C168.282 197.992 169.29 197.572 170.514 197.572C171.762 197.572 172.77 197.992 173.538 198.832C174.306 199.648 174.69 200.644 174.69 201.82C174.69 202.996 174.306 203.992 173.538 204.808C172.77 205.624 171.762 206.032 170.514 206.032ZM188.32 212.656C187.216 212.656 186.208 212.536 185.296 212.296C184.408 212.08 183.58 211.792 182.812 211.432L184.36 207.652C185.08 207.964 185.728 208.18 186.304 208.3C186.904 208.444 187.468 208.516 187.996 208.516C188.86 208.516 189.532 208.372 190.012 208.084C190.492 207.82 190.828 207.412 191.02 206.86C191.212 206.308 191.308 205.6 191.308 204.736V191.884H184.108V187.744H196.6V204.52C196.6 205.624 196.468 206.656 196.204 207.616C195.94 208.6 195.496 209.464 194.872 210.208C194.248 210.976 193.396 211.576 192.316 212.008C191.26 212.44 189.928 212.656 188.32 212.656ZM193.72 184.936C192.712 184.936 191.872 184.648 191.2 184.072C190.528 183.472 190.192 182.692 190.192 181.732C190.192 180.748 190.528 179.956 191.2 179.356C191.872 178.732 192.712 178.42 193.72 178.42C194.752 178.42 195.592 178.732 196.24 179.356C196.912 179.956 197.248 180.748 197.248 181.732C197.248 182.692 196.912 183.472 196.24 184.072C195.592 184.648 194.752 184.936 193.72 184.936ZM213.542 206.032C211.958 206.032 210.386 205.768 208.826 205.24C207.266 204.688 205.922 204.04 204.794 203.296L207.062 199.984C208.142 200.68 209.282 201.208 210.482 201.568C211.706 201.928 212.966 202.108 214.262 202.108C215.246 202.108 215.966 201.964 216.422 201.676C216.878 201.364 217.106 201.004 217.106 200.596C217.106 200.332 217.034 200.116 216.89 199.948C216.77 199.756 216.542 199.588 216.206 199.444C215.894 199.276 215.45 199.12 214.874 198.976C214.322 198.832 213.602 198.664 212.714 198.472C210.29 197.944 208.55 197.224 207.494 196.312C206.438 195.4 205.91 194.26 205.91 192.892C205.91 191.212 206.642 189.868 208.106 188.86C209.57 187.828 211.574 187.312 214.118 187.312C215.726 187.312 217.178 187.576 218.474 188.104C219.794 188.608 220.922 189.16 221.858 189.76L219.482 192.928C218.594 192.376 217.646 191.956 216.638 191.668C215.63 191.38 214.634 191.236 213.65 191.236C213.098 191.236 212.642 191.296 212.282 191.416C211.922 191.512 211.646 191.68 211.454 191.92C211.262 192.136 211.166 192.376 211.166 192.64C211.166 193.12 211.478 193.48 212.102 193.72C212.726 193.936 213.794 194.212 215.306 194.548C217.13 194.956 218.558 195.424 219.59 195.952C220.622 196.48 221.33 197.092 221.714 197.788C222.122 198.46 222.326 199.288 222.326 200.272C222.326 201.352 221.99 202.324 221.318 203.188C220.67 204.052 219.686 204.748 218.366 205.276C217.07 205.78 215.462 206.032 213.542 206.032Z" fill="white"/>
<path d="M111.829 72.6V54.744H115.825L116.185 56.94H116.329C116.665 56.22 117.133 55.608 117.733 55.104C118.333 54.576 119.149 54.312 120.181 54.312C120.949 54.312 121.609 54.564 122.161 55.068C122.713 55.548 123.085 56.268 123.277 57.228C123.613 56.412 124.093 55.728 124.717 55.176C125.365 54.6 126.205 54.312 127.237 54.312C128.509 54.312 129.493 54.828 130.189 55.86C130.885 56.892 131.233 58.296 131.233 60.072V72.6H126.193V60.432C126.193 59.352 125.869 58.812 125.221 58.812C124.885 58.812 124.585 58.956 124.321 59.244C124.081 59.508 123.841 59.94 123.601 60.54V72.6H119.461V60.432C119.461 59.88 119.377 59.472 119.209 59.208C119.041 58.944 118.789 58.812 118.453 58.812C118.117 58.812 117.829 58.956 117.589 59.244C117.349 59.508 117.109 59.94 116.869 60.54V72.6H111.829ZM140.219 73.032C139.019 73.032 137.975 72.792 137.087 72.312C136.223 71.832 135.551 71.184 135.071 70.368C134.591 69.552 134.351 68.64 134.351 67.632C134.351 65.64 135.251 64.116 137.051 63.06C138.875 62.004 141.899 61.356 146.123 61.116C146.051 60.564 145.871 60.096 145.583 59.712C145.295 59.328 144.875 59.04 144.323 58.848C143.795 58.632 143.123 58.524 142.307 58.524C141.731 58.524 141.155 58.596 140.579 58.74C140.003 58.86 139.403 59.052 138.779 59.316C138.179 59.556 137.543 59.844 136.871 60.18L134.999 56.724C135.815 56.244 136.667 55.824 137.555 55.464C138.467 55.104 139.403 54.828 140.363 54.636C141.347 54.42 142.343 54.312 143.351 54.312C145.031 54.312 146.471 54.612 147.671 55.212C148.871 55.788 149.795 56.676 150.443 57.876C151.091 59.052 151.415 60.552 151.415 62.376V72.6H147.095L146.699 70.584H146.555C145.667 71.256 144.683 71.832 143.603 72.312C142.523 72.792 141.395 73.032 140.219 73.032ZM141.911 68.928C142.703 68.928 143.447 68.772 144.143 68.46C144.839 68.124 145.499 67.716 146.123 67.236V64.284C144.371 64.38 143.003 64.56 142.019 64.824C141.059 65.088 140.387 65.424 140.003 65.832C139.619 66.24 139.427 66.708 139.427 67.236C139.427 67.596 139.523 67.908 139.715 68.172C139.931 68.436 140.219 68.628 140.579 68.748C140.963 68.868 141.407 68.928 141.911 68.928ZM156.477 72.6V47.364H161.769V61.944H161.913L168.465 54.744H174.261L161.769 68.1V72.6H156.477ZM169.077 72.6L163.893 64.5L166.917 61.224L174.801 72.6H169.077ZM187.207 73.032C185.359 73.032 183.679 72.672 182.167 71.952C180.679 71.208 179.491 70.14 178.603 68.748C177.739 67.332 177.307 65.64 177.307 63.672C177.307 61.728 177.751 60.06 178.639 58.668C179.527 57.252 180.679 56.172 182.095 55.428C183.511 54.684 185.011 54.312 186.595 54.312C188.443 54.312 189.991 54.696 191.239 55.464C192.487 56.208 193.423 57.228 194.047 58.524C194.695 59.796 195.019 61.248 195.019 62.88C195.019 63.36 194.983 63.828 194.911 64.284C194.863 64.716 194.815 65.04 194.767 65.256H181.231V61.692H191.203L190.375 62.7C190.375 61.26 190.063 60.18 189.439 59.46C188.839 58.716 187.951 58.344 186.775 58.344C185.911 58.344 185.155 58.536 184.507 58.92C183.859 59.304 183.355 59.892 182.995 60.684C182.635 61.476 182.455 62.472 182.455 63.672C182.455 64.896 182.671 65.904 183.103 66.696C183.535 67.464 184.159 68.04 184.975 68.424C185.791 68.808 186.775 69 187.927 69C188.743 69 189.511 68.892 190.231 68.676C190.975 68.46 191.743 68.148 192.535 67.74L194.299 70.944C193.267 71.592 192.127 72.108 190.879 72.492C189.631 72.852 188.407 73.032 187.207 73.032Z" fill="white"/>
</g>
<defs>
<clipPath id="clip0_2_22">
<rect width="256" height="256" fill="white"/>
</clipPath>
</defs>
</svg>
