<?xml version="1.0" encoding="utf-8"?>
<!-- Generator: Adobe Illustrator 25.4.1, SVG Export Plug-In . SVG Version: 6.00 Build 0)  -->
<svg version="1.1" id="Layer_1" xmlns="http://www.w3.org/2000/svg" xmlns:xlink="http://www.w3.org/1999/xlink" x="0px" y="0px"
	 viewBox="0 0 256 256" style="enable-background:new 0 0 256 256;" xml:space="preserve">
<style type="text/css">
	.st0{fill:#004656;}
	.st1{fill:#FFFFFF;}
</style>
<path class="st0" d="M256,132.9v80.3c0,23.6-19.2,42.8-42.8,42.8h-80.3c-23.7,0-42.9-19.2-42.9-42.8v-80.3c0-4.7,0.7-9.2,2.1-13.4
	l20.8,7l20.6,7l-7-20.6l-7-20.8c4.3-1.4,8.7-2.1,13.4-2.1h80.3C236.8,90,256,109.2,256,132.9z"/>
<g>
	<path class="st1" d="M168.1,178.2c0,5.2-3.7,9.4-10.7,10.6v9.3h-6.2v-9.2c-4.1-0.4-8.7-2.1-11.8-4.8l3.9-6.3
		c3.9,2.5,7.4,3.8,11.3,3.8c3,0,4.6-1,4.6-2.8c0-5.2-18.2-4.4-18.2-15.8c0-5.4,3.9-9.2,10.2-10.1v-8.3h6.2v8.3c4.4,0.4,7.5,2.3,10,5
		l-4.6,5.2c-3-2-5.2-3.1-8.7-3.1c-2.8,0-4.3,1-4.3,2.8C149.9,167.3,168.1,166.8,168.1,178.2z"/>
	<path class="st1" d="M176.6,194.5h30v6.9h-30V194.5z"/>
</g>
<g>
	<polygon class="st0" points="116.5,116.5 96.9,109.8 0,76.8 64,64 76.8,0 109.8,96.9 	"/>
</g>
</svg>
